<?xml version="1.0" standalone="no"?>
<!DOCTYPE svg PUBLIC "-//W3C//DTD SVG 20010904//EN"
 "http://www.w3.org/TR/2001/REC-SVG-20010904/DTD/svg10.dtd">
<svg version="1.0" xmlns="http://www.w3.org/2000/svg"
 width="1024.000000pt" height="1024.000000pt" viewBox="0 0 1024.000000 1024.000000"
 preserveAspectRatio="xMidYMid meet">

<g transform="translate(0.000000,1024.000000) scale(0.100000,-0.100000)"
    fill="currentColor" stroke="none">
<path d="M3398 7795 c-234 -37 -489 -175 -648 -353 -210 -234 -325 -568 -306
-885 15 -250 97 -496 235 -702 57 -86 214 -247 301 -307 363 -255 819 -246
1181 23 95 70 226 210 296 317 219 332 282 776 161 1137 -113 341 -374 610
-702 724 -169 59 -335 74 -518 46z m318 -206 c285 -50 526 -234 661 -504 173
-347 122 -809 -127 -1145 -183 -245 -483 -397 -744 -375 -411 35 -742 360
-841 830 -23 110 -31 297 -15 392 44 276 191 512 410 660 98 66 241 125 345
142 73 13 242 13 311 0z"/>
<path d="M6570 7779 c-374 -45 -710 -293 -886 -653 -89 -183 -134 -391 -134
-616 0 -234 -32 -463 -90 -644 -17 -50 -59 -149 -95 -221 -36 -71 -65 -138
-65 -148 0 -50 31 -85 110 -126 160 -84 338 -141 575 -184 138 -26 138 -27 0
-47 -305 -44 -568 -149 -730 -291 l-34 -30 -78 66 c-195 167 -441 264 -848
336 -173 30 -164 32 -259 -64 -139 -142 -275 -205 -461 -214 -188 -10 -340 52
-492 200 -51 51 -104 96 -117 100 -16 5 -107 -7 -273 -37 -295 -53 -581 -104
-828 -146 -99 -17 -222 -38 -273 -47 -51 -9 -95 -14 -98 -11 -8 9 155 651 169
664 6 6 49 24 95 39 151 49 261 157 304 298 37 124 11 241 -72 310 -28 24 -30
30 -30 100 0 237 -152 398 -415 439 -86 13 -231 0 -305 -29 -142 -54 -239
-163 -280 -312 -6 -23 -33 -113 -60 -199 -86 -279 -329 -1061 -390 -1257 -99
-319 -104 -340 -104 -450 0 -186 51 -312 179 -440 56 -57 102 -92 152 -119
126 -64 140 -66 791 -66 l582 0 0 -715 c0 -784 -1 -768 59 -799 27 -14 313
-16 2883 -16 2696 0 2855 1 2888 18 19 9 40 28 47 42 6 14 32 230 58 480 48
479 95 956 95 978 0 9 122 12 578 12 645 0 661 2 792 67 104 52 221 170 272
273 42 86 68 194 68 277 0 98 -17 160 -160 613 -32 102 -109 345 -170 540
-297 944 -280 896 -360 978 -183 186 -563 169 -750 -34 -68 -73 -103 -162
-108 -268 -4 -86 -6 -90 -38 -118 -77 -68 -106 -166 -80 -268 45 -177 149
-286 320 -340 48 -15 84 -33 92 -45 7 -11 22 -58 34 -105 27 -108 149 -555
157 -576 5 -14 -1 -15 -48 -9 -76 9 -918 131 -1069 154 -69 11 -171 25 -228
32 -56 7 -101 14 -99 16 2 2 76 19 163 38 418 90 644 189 644 281 0 13 -24 73
-53 132 -134 267 -177 460 -197 877 -13 288 -43 421 -135 605 -143 285 -417
531 -697 624 -158 53 -346 74 -498 55z m409 -238 c181 -61 303 -141 443 -291
119 -125 204 -280 248 -450 20 -73 29 -168 50 -491 16 -261 71 -488 169 -703
17 -38 30 -70 29 -71 -13 -7 -160 -59 -226 -79 -104 -32 -309 -74 -381 -78
l-54 -3 -15 42 -16 41 53 58 c110 120 183 249 246 434 61 177 102 431 93 579
-5 97 -22 118 -129 157 -152 55 -223 99 -340 211 -42 40 -100 109 -130 152
-58 86 -81 105 -128 103 -46 -1 -66 -16 -130 -101 -174 -228 -434 -362 -759
-390 -60 -5 -119 -14 -132 -21 -39 -21 -50 -68 -50 -222 0 -370 113 -687 326
-917 55 -60 56 -61 44 -96 -14 -41 -16 -42 -165 -20 -166 23 -313 63 -438 119
l-58 25 27 52 c112 221 167 480 184 869 13 293 45 444 126 603 58 113 111 186
199 272 121 118 241 184 419 231 81 22 108 24 246 21 144 -3 162 -6 249 -36z
m61 -809 c70 -67 182 -142 289 -194 l84 -40 -6 -122 c-20 -393 -198 -735 -447
-861 -117 -59 -307 -72 -431 -29 -226 80 -403 301 -479 601 -26 102 -48 328
-34 351 7 11 42 22 107 33 194 34 391 111 526 206 90 62 171 134 206 183 l30
40 50 -57 c27 -32 74 -82 105 -111z m1830 -97 c67 -9 143 -49 173 -93 26 -37
109 -291 438 -1332 l163 -515 0 -105 c0 -92 -3 -112 -27 -163 -37 -80 -125
-170 -206 -210 l-66 -32 -663 -5 -664 -5 -27 -31 c-34 -37 -32 -28 -71 -434
-17 -173 -48 -481 -68 -685 l-37 -370 -1127 -3 c-621 -1 -1128 1 -1128 5 0 5
-5 289 -10 632 -7 406 -15 671 -25 760 -22 212 -75 398 -157 549 -21 40 -36
77 -33 82 10 17 176 121 228 145 116 50 336 114 397 115 8 0 32 -27 53 -60 61
-94 198 -217 303 -272 122 -64 214 -88 354 -95 315 -15 592 128 796 411 l21
29 144 -22 c79 -12 304 -46 499 -76 195 -30 454 -70 574 -90 177 -28 226 -33
252 -25 37 13 64 48 64 85 0 31 -218 858 -242 919 -29 73 -97 123 -198 146
-30 7 -67 19 -82 26 -93 48 -162 198 -121 267 3 4 22 -12 43 -35 71 -82 193
-125 321 -116 52 4 66 9 86 32 27 32 30 83 8 125 -18 36 -33 42 -126 51 -99 9
-156 45 -188 119 -24 56 -25 71 -10 124 14 51 64 106 119 130 45 20 137 36
175 31 11 -1 40 -5 65 -9z m-7234 -22 c82 -44 133 -133 120 -212 -14 -87 -111
-161 -211 -161 -70 0 -108 -15 -128 -49 -26 -44 -22 -86 12 -123 29 -33 30
-33 123 -32 121 0 186 25 267 100 63 58 71 57 71 -8 0 -58 -24 -112 -70 -159
-45 -46 -78 -62 -192 -94 -62 -17 -119 -59 -144 -106 -27 -54 -226 -861 -220
-898 6 -42 39 -78 78 -86 17 -4 102 6 206 24 190 34 867 151 1174 203 l186 32
64 -59 c77 -71 179 -139 261 -172 216 -88 486 -81 685 17 80 40 204 131 249
184 13 14 27 26 31 26 23 0 230 -42 318 -64 489 -124 723 -379 804 -876 20
-122 27 -316 29 -820 0 -261 4 -510 8 -552 l6 -78 -252 0 -251 0 0 653 c0 421
-4 665 -11 689 -19 70 -107 91 -160 39 l-29 -30 2 -675 3 -676 -1171 0 -1171
0 -6 473 c-4 259 -7 579 -7 710 0 253 -4 282 -50 322 -21 19 -40 20 -689 25
l-666 5 -58 27 c-81 38 -170 127 -209 207 -25 53 -33 83 -36 147 -5 93 -12 66
133 534 57 184 174 562 260 840 187 606 178 581 218 620 68 67 112 80 262 77
100 -2 127 -6 161 -24z m5458 -1400 c19 -67 40 -131 46 -143 6 -12 39 -34 73
-49 l61 -27 -49 -54 c-109 -116 -245 -194 -394 -226 -133 -28 -271 -8 -411 58
-68 33 -101 57 -167 123 -46 45 -83 87 -83 93 0 6 17 16 38 21 82 23 102 54
137 208 13 58 25 107 27 108 2 2 35 -7 73 -20 184 -62 389 -58 555 9 30 13 56
22 57 22 1 -1 18 -56 37 -123z"/>
</g>
</svg>
