<?xml version="1.0" encoding="UTF-8"?>
<!DOCTYPE svg PUBLIC "-//W3C//DTD SVG 1.1//EN" "http://www.w3.org/Graphics/SVG/1.1/DTD/svg11.dtd">
<svg xmlns="http://www.w3.org/2000/svg" version="1.1" width="100%" height="100%" viewBox="0 0 512 512" style="shape-rendering:geometricPrecision; text-rendering:geometricPrecision; image-rendering:optimizeQuality; fill-rule:evenodd; clip-rule:evenodd" xmlns:xlink="http://www.w3.org/1999/xlink">
<g><path style="opacity:0.947" fill="currentColor" d="M 240.5,24.5 C 283.868,22.5396 324.868,31.3729 363.5,51C 385.414,61.9952 392.58,79.1619 385,102.5C 374.586,120.117 359.42,126.284 339.5,121C 287.276,91.3758 234.276,89.8758 180.5,116.5C 176.168,154.832 154.835,176.165 116.5,180.5C 89.9262,234.921 91.4262,288.588 121,341.5C 125.797,365.423 116.63,380.923 93.5,388C 78.5799,389.952 66.4132,385.119 57,373.5C 21.3611,311.108 15.0277,245.775 38,177.5C 43.3779,162.911 50.2112,149.078 58.5,136C 50.937,106.687 59.2703,83.0204 83.5,65C 100.46,55.5084 118.46,52.8417 137.5,57C 169.279,37.7946 203.612,26.9613 240.5,24.5 Z M 235.5,46.5 C 279.699,43.1048 321.032,52.2715 359.5,74C 369.024,83.1146 368.69,91.7813 358.5,100C 354.928,101.405 351.261,101.738 347.5,101C 297.502,73.308 245.502,68.9746 191.5,88C 185.925,90.3713 180.425,92.8713 175,95.5C 171.645,86.4748 166.312,78.8081 159,72.5C 158.312,71.6683 158.479,71.0016 159.5,70.5C 183.357,57.541 208.69,49.541 235.5,46.5 Z M 113.5,76.5 C 136.665,76.8394 151.165,88.1727 157,110.5C 158.692,134.801 147.858,150.301 124.5,157C 98.432,158.939 82.5986,147.106 77,121.5C 76.8973,96.4448 89.0639,81.4448 113.5,76.5 Z M 69.5,158.5 C 74.3203,162.477 79.3203,166.31 84.5,170C 87.8333,171.667 91.1667,173.333 94.5,175C 72.5003,220.957 69.667,268.124 86,316.5C 90.7783,328.551 95.945,340.385 101.5,352C 98.5895,364.952 90.9228,369.285 78.5,365C 76.6667,363.167 74.8333,361.333 73,359.5C 43.3197,303.632 38.3197,245.632 58,185.5C 61.547,176.353 65.3803,167.353 69.5,158.5 Z"/></g>
<g><path style="opacity:0.948" fill="currentColor" d="M 418.5,122.5 C 438.037,121.513 451.871,129.846 460,147.5C 495.629,220.031 495.295,292.365 459,364.5C 456.959,368.084 454.792,371.584 452.5,375C 460.059,404.325 451.726,427.992 427.5,446C 410.906,455.873 393.406,458.039 375,452.5C 316.802,487.255 254.968,495.421 189.5,477C 169.844,471.169 151.51,462.669 134.5,451.5C 118.224,432.7 118.558,414.2 135.5,396C 145.091,388.772 155.758,386.439 167.5,389C 176.396,392.447 185.063,396.447 193.5,401C 240.147,419.411 285.814,417.244 330.5,394.5C 334.833,356.167 356.167,334.833 394.5,330.5C 421.125,276.737 419.625,223.737 390,171.5C 384.853,153.607 389.686,139.107 404.5,128C 409.017,125.445 413.684,123.612 418.5,122.5 Z M 421.5,144.5 C 429.088,144.21 434.921,147.21 439,153.5C 468.86,211.896 472.527,271.896 450,333.5C 447.361,340.112 444.194,346.446 440.5,352.5C 433.683,345.26 425.683,339.76 416.5,336C 439.311,287.795 441.478,238.628 423,188.5C 419.527,180.221 415.527,172.221 411,164.5C 409.02,154.788 412.52,148.122 421.5,144.5 Z M 386.5,353.5 C 414.53,352.694 430.53,366.194 434.5,394C 431.594,418.406 417.927,431.906 393.5,434.5C 365.816,430.326 352.65,414.326 354,386.5C 358.348,368.986 369.182,357.986 386.5,353.5 Z M 155.5,409.5 C 157.857,409.337 160.19,409.503 162.5,410C 218.76,441.187 276.093,443.354 334.5,416.5C 339.127,425.306 345.127,433.139 352.5,440C 310.913,462.264 266.913,469.598 220.5,462C 195.641,457.826 172.308,449.492 150.5,437C 143.523,430.209 142.69,422.709 148,414.5C 150.426,412.548 152.926,410.881 155.5,409.5 Z"/></g>
<g><path style="opacity:0.943" fill="currentColor" d="M 208.5,178.5 C 225.882,176.465 241.382,180.799 255,191.5C 270.339,179.708 287.506,175.875 306.5,180C 324.568,186.404 336.068,198.904 341,217.5C 346.037,237.578 342.37,255.911 330,272.5C 325.2,278.302 320.033,283.802 314.5,289C 296.167,303.333 277.833,317.667 259.5,332C 255.705,332.837 252.039,332.504 248.5,331C 231.121,316.619 213.454,302.619 195.5,289C 179.914,275.993 170.414,259.493 167,239.5C 165.993,208.794 179.826,188.46 208.5,178.5 Z M 213.5,199.5 C 228.482,199.157 240.482,204.991 249.5,217C 253.5,219 257.5,219 261.5,217C 270.5,204.832 282.5,199.165 297.5,200C 316.789,207.055 324.955,220.889 322,241.5C 318.086,254.833 310.586,265.666 299.5,274C 284.879,284.952 270.546,296.286 256.5,308C 255.833,308.667 255.167,308.667 254.5,308C 238.167,295 221.833,282 205.5,269C 190.129,255.555 185.295,239.055 191,219.5C 195.837,209.691 203.337,203.024 213.5,199.5 Z"/></g>
</svg>
